<?xml version="1.0" encoding="UTF-8"?><svg id="Layer_2" xmlns="http://www.w3.org/2000/svg" xmlns:xlink="http://www.w3.org/1999/xlink" viewBox="0 0 370.3075 64.988"><defs><linearGradient id="linear-gradient" x1="122.5507" y1="32.494" x2="143.1712" y2="32.494" gradientUnits="userSpaceOnUse"><stop offset="0" stop-color="#2d81f7"/><stop offset=".1274" stop-color="#2d81f7"/><stop offset=".1831" stop-color="#3585f7"/><stop offset=".2723" stop-color="#4c92f7"/><stop offset=".3839" stop-color="#73a7f7"/><stop offset=".5123" stop-color="#a7c4f7"/><stop offset=".5203" stop-color="#abc6f8"/><stop offset=".6958" stop-color="#dee8fc"/><stop offset=".8017" stop-color="#fff"/><stop offset="1" stop-color="#fff"/></linearGradient><clipPath id="clippath"><path d="M61.8953,32.487c0,17.95,14.55,32.501,32.5,32.501,11.695,0,21.969-6.2,27.68-15.497l-4.276-1.306c-5.066,7.533-13.661,12.498-23.404,12.498-15.554,0-28.195-12.656-28.195-28.196s12.641-28.182,28.195-28.182c14.823,0,27.005,11.494,28.096,26.03h4.305C125.7053,13.402,111.6143,0,94.3953,0c-17.95,0-32.5,14.551-32.5,32.487" style="fill:url(#linear-gradient);"/></clipPath><linearGradient id="linear-gradient-2" y1="32.494" y2="32.494" gradientTransform="translate(27.9332 -41.9798) rotate(29.2703)" xlink:href="#linear-gradient"/><linearGradient id="linear-gradient-3" x1="118.7307" y1="56.8337" x2="129.9859" y2="68.0889" xlink:href="#linear-gradient"/><linearGradient id="linear-gradient-4" x1="118.7307" y1="56.8337" x2="129.9859" y2="68.0889" xlink:href="#linear-gradient"/><clipPath id="clippath-1"><path d="M74.2353,21.309h5.108c3.429-4.592,8.897-7.562,15.052-7.562,10.332,0,18.74,8.409,18.74,18.74,0,10.345-8.408,18.754-18.74,18.754-9.614,0-17.548-7.26-18.625-16.588h-4.333c1.091,11.724,10.949,20.893,22.958,20.893,12.728,0,23.045-10.317,23.045-23.059,0-12.728-10.317-23.045-23.045-23.045-8.666,0-16.228,4.778-20.16,11.867" style="fill:url(#linear-gradient-4);"/></clipPath><linearGradient id="linear-gradient-5" x1="118.7546" y1="56.8098" x2="130.0098" y2="68.065" gradientTransform="translate(54.345 -58.9775) rotate(47.3441)" xlink:href="#linear-gradient"/><linearGradient id="linear-gradient-6" x1="122.2978" y1="50.7769" x2="122.2978" y2="33.6873" xlink:href="#linear-gradient"/><linearGradient id="linear-gradient-7" x1="122.2978" y1="50.7769" x2="122.2978" y2="33.6873" xlink:href="#linear-gradient"/><clipPath id="clippath-2"><path d="M122.4913,34.653c-.388,4.98-2.066,9.6-4.692,13.532l4.276,1.306c2.683-4.363,4.376-9.428,4.721-14.838h-4.305Z" style="fill:url(#linear-gradient-7);"/></clipPath><mask id="mask" x="-459.5188" y="33.5122" width="588.1965" height="18.1198" maskUnits="userSpaceOnUse"/><linearGradient id="linear-gradient-8" x1="122.2978" y1="50.7769" x2="122.2978" y2="33.6873" gradientTransform="translate(148.3887 -84.6011) rotate(82.6546)" xlink:href="#linear-gradient"/><linearGradient id="linear-gradient-9" x1="75.3903" y1="19.7811" x2="75.3903" y2="31.6215" xlink:href="#linear-gradient"/><linearGradient id="linear-gradient-10" x1="75.3903" y1="19.7811" x2="75.3903" y2="31.6215" xlink:href="#linear-gradient"/><clipPath id="clippath-3"><path d="M74.2353,21.309c-1.521,2.711-2.497,5.768-2.798,9.026h4.333c.388-3.358,1.651-6.443,3.573-9.026h-5.108Z" style="fill:url(#linear-gradient-10);"/></clipPath><mask id="mask-1" x="-505.7454" y="19.7795" width="586.8349" height="13.0851" maskUnits="userSpaceOnUse"/><linearGradient id="linear-gradient-11" x1="75.3903" y1="19.7795" x2="75.3903" y2="31.62" gradientTransform="translate(85.827 -53.1814) rotate(78.6185)" xlink:href="#linear-gradient"/><clipPath id="clippath-4"><path d="M81.4323,32.494c0,7.183,5.823,13.006,13.006,13.006s13.007-5.823,13.007-13.006-5.823-13.006-13.007-13.006-13.006,5.823-13.006,13.006" style="fill:#6a38c2;"/></clipPath></defs><g id="Components"><g id="_220bc6fe-2406-4e0d-a54d-7910b06674ed_1"><path d="M33.272,64.5198c-4.745,0-9.15-.788-13.211-2.358-4.063-1.571-7.593-3.795-10.587-6.672-2.996-2.877-5.324-6.272-6.984-10.187-1.661-3.914-2.49-8.185-2.49-12.81s.829-8.897,2.49-12.811c1.66-3.915,4.004-7.309,7.028-10.187,3.026-2.875,6.553-5.099,10.588-6.672C24.138,1.2528,28.557.4648,33.361.4648c5.1,0,9.756.876,13.967,2.625,4.211,1.75,7.769,4.345,10.676,7.784l-7.473,7.0291c-2.255-2.432-4.775-4.256-7.562-5.472-2.789-1.215-5.813-1.823-9.074-1.823-3.263,0-6.243.533-8.941,1.601-2.699,1.068-5.042,2.58-7.028,4.538-1.988,1.956-3.53,4.269-4.626,6.939-1.099,2.668-1.646,5.603-1.646,8.807s.547,6.139,1.646,8.807c1.096,2.669,2.638,4.982,4.626,6.939,1.986,1.957,4.329,3.469,7.028,4.537,2.698,1.068,5.678,1.602,8.941,1.602,3.261,0,6.285-.609,9.074-1.825,2.787-1.215,5.307-3.069,7.562-5.56l7.473,7.118c-2.907,3.38-6.465,5.96-10.676,7.74-4.211,1.779-8.896,2.669-14.056,2.669" style="fill:#6a38c2;"/><path d="M140.206,63.63V1.355h25.531c8.303,0,14.813,1.957,19.528,5.871,4.716,3.915,7.073,9.342,7.073,16.281,0,4.567-1.068,8.496-3.202,11.788-2.136,3.2921-5.176,5.812-9.12,7.561-3.944,1.75-8.674,2.625-14.189,2.625h-19.216l5.16-5.249v23.398h-11.565ZM151.771,41.477l-5.16-5.515h18.682c5.099,0,8.94-1.097,11.52-3.2921,2.581-2.193,3.87-5.249,3.87-9.163,0-3.972-1.289-7.028-3.87-9.164-2.58-2.134-6.421-3.202-11.52-3.202h-18.682l5.16-5.693v36.029ZM180.951,63.63l-15.747-22.597h12.366l15.835,22.597h-12.454Z" style="fill:#6a38c2;"/><polygon points="216.9791 63.63 216.9791 11.141 196.3401 11.141 196.3401 1.355 249.1841 1.355 249.1841 11.141 228.5451 11.141 228.5451 63.63 216.9791 63.63" style="fill:#6a38c2;"/><path d="M257.9033,63.63V1.355h45.46v9.697h-33.895v42.881h35.141v9.697h-46.706ZM268.5783,27.243h30.96v9.519h-30.96v-9.519Z" style="fill:#6a38c2;"/><path d="M61.8953,32.487c0,17.95,14.55,32.501,32.5,32.501,11.695,0,21.969-6.2,27.68-15.497l-4.276-1.306c-5.066,7.533-13.661,12.498-23.404,12.498-15.554,0-28.195-12.656-28.195-28.196s12.641-28.182,28.195-28.182c14.823,0,27.005,11.494,28.096,26.03h4.305C125.7053,13.402,111.6143,0,94.3953,0c-17.95,0-32.5,14.551-32.5,32.487" style="fill:url(#linear-gradient);"/><g style="clip-path:url(#clippath);"><rect x="50.1511" y="-11.7173" width="88.3893" height="88.4226" transform="translate(-3.8415 50.2773) rotate(-29.2703)" style="fill:url(#linear-gradient-2);"/></g><path d="M74.2353,21.309h5.108c3.429-4.592,8.897-7.562,15.052-7.562,10.332,0,18.74,8.409,18.74,18.74,0,10.345-8.408,18.754-18.74,18.754-9.614,0-17.548-7.26-18.625-16.588h-4.333c1.091,11.724,10.949,20.893,22.958,20.893,12.728,0,23.045-10.317,23.045-23.059,0-12.728-10.317-23.045-23.045-23.045-8.666,0-16.228,4.778-20.16,11.867" style="fill:url(#linear-gradient-3);"/><g style="clip-path:url(#clippath-1);"><rect x="61.8998" y="-.042" width="65.078" height="65.0721" transform="translate(6.5504 79.9301) rotate(-47.3441)" style="fill:url(#linear-gradient-5);"/></g><path d="M122.4913,34.653c-.388,4.98-2.066,9.6-4.692,13.532l4.276,1.306c2.683-4.363,4.376-9.428,4.721-14.838h-4.305Z" style="fill:url(#linear-gradient-6);"/><g style="clip-path:url(#clippath-2);"><g style="mask:url(#mask);"><rect x="114.3645" y="36.6619" width="15.8665" height="10.8202" transform="translate(64.9352 157.9872) rotate(-82.6546)" style="fill:url(#linear-gradient-8);"/></g></g><path d="M74.2353,21.309c-1.521,2.711-2.497,5.768-2.798,9.026h4.333c.388-3.358,1.651-6.443,3.573-9.026h-5.108Z" style="fill:url(#linear-gradient-9);"/><g style="clip-path:url(#clippath-3);"><g style="mask:url(#mask-1);"><rect x="70.186" y="21.0562" width="10.4087" height="9.5317" transform="translate(35.1985 94.634) rotate(-78.6185)" style="fill:url(#linear-gradient-11);"/></g></g><path d="M81.4323,32.494c0,7.183,5.823,13.006,13.006,13.006s13.007-5.823,13.007-13.006-5.823-13.006-13.007-13.006-13.006,5.823-13.006,13.006" style="fill:#6a38c2;"/><g style="clip-path:url(#clippath-4);"><rect x="76.0606" y="14.1158" width="36.7564" height="36.7564" transform="translate(6.5504 79.93) rotate(-47.3441)" style="fill:#6a38c2;"/></g><path d="M313.0935,1.053h11.621v62.577h-11.621V1.053ZM323.4635,48.879l-.626-13.767L355.6465,1.053h13.052l-27.267,28.965-6.436,7.062-11.532,11.799ZM356.7185,63.63l-23.958-28.518,7.689-8.492,29.858,37.01h-13.589Z" style="fill:#6a38c2;"/></g></g></svg>