<?xml version="1.0" encoding="UTF-8"?><svg id="Layer_2" xmlns="http://www.w3.org/2000/svg" xmlns:xlink="http://www.w3.org/1999/xlink" viewBox="0 0 64.901 64.988"><defs><linearGradient id="linear-gradient" x1="60.6554" y1="32.494" x2="81.2759" y2="32.494" gradientUnits="userSpaceOnUse"><stop offset="0" stop-color="#2d81f7"/><stop offset=".1274" stop-color="#2d81f7"/><stop offset=".1831" stop-color="#3585f7"/><stop offset=".2723" stop-color="#4c92f7"/><stop offset=".3839" stop-color="#73a7f7"/><stop offset=".5123" stop-color="#a7c4f7"/><stop offset=".5203" stop-color="#abc6f8"/><stop offset=".6958" stop-color="#dee8fc"/><stop offset=".8017" stop-color="#fff"/><stop offset="1" stop-color="#fff"/></linearGradient><clipPath id="clippath"><path d="M0,32.487c0,17.95,14.55,32.501,32.5,32.501,11.695,0,21.969-6.2,27.68-15.497l-4.276-1.306c-5.066,7.533-13.661,12.498-23.404,12.498-15.554,0-28.195-12.656-28.195-28.196S16.946,4.305,32.5,4.305c14.823,0,27.005,11.494,28.096,26.03h4.305C63.81,13.402,49.719,0,32.5,0,14.55,0,0,14.551,0,32.487" style="fill:url(#linear-gradient);"/></clipPath><linearGradient id="linear-gradient-2" y1="32.494" y2="32.494" gradientTransform="translate(20.0305 -11.7173) rotate(29.2703)" xlink:href="#linear-gradient"/><linearGradient id="linear-gradient-3" x1="56.8354" y1="56.8337" x2="68.0906" y2="68.0889" xlink:href="#linear-gradient"/><linearGradient id="linear-gradient-4" x1="56.8354" y1="56.8337" x2="68.0906" y2="68.0889" xlink:href="#linear-gradient"/><clipPath id="clippath-1"><path d="M12.34,21.309h5.108c3.429-4.592,8.897-7.562,15.052-7.562,10.332,0,18.74,8.409,18.74,18.74,0,10.345-8.408,18.754-18.74,18.754-9.614,0-17.548-7.26-18.625-16.588h-4.333c1.091,11.724,10.949,20.893,22.958,20.893,12.728,0,23.045-10.317,23.045-23.059,0-12.728-10.317-23.045-23.045-23.045-8.666,0-16.228,4.778-20.16,11.867" style="fill:url(#linear-gradient-4);"/></clipPath><linearGradient id="linear-gradient-5" x1="56.8593" y1="56.8098" x2="68.1145" y2="68.065" gradientTransform="translate(34.3896 -13.4574) rotate(47.3441)" xlink:href="#linear-gradient"/><linearGradient id="linear-gradient-6" x1="60.4025" y1="50.7769" x2="60.4025" y2="33.6873" xlink:href="#linear-gradient"/><linearGradient id="linear-gradient-7" x1="60.4025" y1="50.7769" x2="60.4025" y2="33.6873" xlink:href="#linear-gradient"/><clipPath id="clippath-2"><path d="M60.596,34.653c-.388,4.98-2.066,9.6-4.692,13.532l4.276,1.306c2.683-4.363,4.376-9.428,4.721-14.838h-4.305Z" style="fill:url(#linear-gradient-7);"/></clipPath><mask id="mask" x="-612.2221" y="33.5122" width="679.0046" height="18.1198" maskUnits="userSpaceOnUse"/><linearGradient id="linear-gradient-8" x1="60.4025" y1="50.7769" x2="60.4025" y2="33.6873" gradientTransform="translate(94.4068 -23.2137) rotate(82.6546)" xlink:href="#linear-gradient"/><linearGradient id="linear-gradient-9" x1="13.495" y1="19.7811" x2="13.495" y2="31.6215" xlink:href="#linear-gradient"/><linearGradient id="linear-gradient-10" x1="13.495" y1="19.7811" x2="13.495" y2="31.6215" xlink:href="#linear-gradient"/><clipPath id="clippath-3"><path d="M12.34,21.309c-1.521,2.711-2.497,5.768-2.798,9.026h4.333c.388-3.358,1.651-6.443,3.573-9.026h-5.108Z" style="fill:url(#linear-gradient-10);"/></clipPath><mask id="mask-1" x="-658.4488" y="19.7795" width="677.643" height="13.0851" maskUnits="userSpaceOnUse"/><linearGradient id="linear-gradient-11" x1="13.495" y1="19.7795" x2="13.495" y2="31.62" gradientTransform="translate(36.1461 7.4967) rotate(78.6185)" xlink:href="#linear-gradient"/><clipPath id="clippath-4"><path d="M19.537,32.494c0,7.183,5.823,13.006,13.006,13.006s13.007-5.823,13.007-13.006-5.823-13.006-13.007-13.006-13.006,5.823-13.006,13.006" style="fill:#6a38c2;"/></clipPath></defs><g id="Components"><g id="_27cccd0f-7a1f-4f7f-8cc8-91b535be9059_1"><path d="M0,32.487c0,17.95,14.55,32.501,32.5,32.501,11.695,0,21.969-6.2,27.68-15.497l-4.276-1.306c-5.066,7.533-13.661,12.498-23.404,12.498-15.554,0-28.195-12.656-28.195-28.196S16.946,4.305,32.5,4.305c14.823,0,27.005,11.494,28.096,26.03h4.305C63.81,13.402,49.719,0,32.5,0,14.55,0,0,14.551,0,32.487" style="fill:url(#linear-gradient);"/><g style="clip-path:url(#clippath);"><rect x="-11.7442" y="-11.7173" width="88.3893" height="88.4226" transform="translate(-11.7441 20.0148) rotate(-29.2703)" style="fill:url(#linear-gradient-2);"/></g><path d="M12.34,21.309h5.108c3.429-4.592,8.897-7.562,15.052-7.562,10.332,0,18.74,8.409,18.74,18.74,0,10.345-8.408,18.754-18.74,18.754-9.614,0-17.548-7.26-18.625-16.588h-4.333c1.091,11.724,10.949,20.893,22.958,20.893,12.728,0,23.045-10.317,23.045-23.059,0-12.728-10.317-23.045-23.045-23.045-8.666,0-16.228,4.778-20.16,11.867" style="fill:url(#linear-gradient-3);"/><g style="clip-path:url(#clippath-1);"><rect x=".0045" y="-.042" width="65.078" height="65.0721" transform="translate(-13.405 34.41) rotate(-47.3441)" style="fill:url(#linear-gradient-5);"/></g><path d="M60.596,34.653c-.388,4.98-2.066,9.6-4.692,13.532l4.276,1.306c2.683-4.363,4.376-9.428,4.721-14.838h-4.305Z" style="fill:url(#linear-gradient-6);"/><g style="clip-path:url(#clippath-2);"><g style="mask:url(#mask);"><rect x="52.4693" y="36.6619" width="15.8665" height="10.8202" transform="translate(10.9533 96.5999) rotate(-82.6546)" style="fill:url(#linear-gradient-8);"/></g></g><path d="M12.34,21.309c-1.521,2.711-2.497,5.768-2.798,9.026h4.333c.388-3.358,1.651-6.443,3.573-9.026h-5.108Z" style="fill:url(#linear-gradient-9);"/><g style="clip-path:url(#clippath-3);"><g style="mask:url(#mask-1);"><rect x="8.2907" y="21.0562" width="10.4087" height="9.5317" transform="translate(-14.4823 33.9559) rotate(-78.6185)" style="fill:url(#linear-gradient-11);"/></g></g><path d="M19.537,32.494c0,7.183,5.823,13.006,13.006,13.006s13.007-5.823,13.007-13.006-5.823-13.006-13.007-13.006-13.006,5.823-13.006,13.006" style="fill:#6a38c2;"/><g style="clip-path:url(#clippath-4);"><rect x="14.1653" y="14.1158" width="36.7564" height="36.7564" transform="translate(-13.4051 34.41) rotate(-47.3441)" style="fill:#6a38c2;"/></g></g></g></svg>